<mxfile host="65bd71144e">
    <diagram id="BO3fNUki4Mj-shOOcm3u" name="Page-1">
        <mxGraphModel dx="1246" dy="814" grid="0" gridSize="10" guides="1" tooltips="1" connect="1" arrows="1" fold="1" page="1" pageScale="1" pageWidth="850" pageHeight="1100" background="#FFFFFF" math="0" shadow="0">
            <root>
                <mxCell id="0"/>
                <mxCell id="1" parent="0"/>
                <mxCell id="69" style="edgeStyle=none;html=1;exitX=0;exitY=0.5;exitDx=0;exitDy=0;entryX=1;entryY=0.5;entryDx=0;entryDy=0;strokeColor=#000000;fontColor=#000000;" parent="1" source="2" target="30" edge="1">
                    <mxGeometry relative="1" as="geometry"/>
                </mxCell>
                <mxCell id="70" style="edgeStyle=none;html=1;exitX=0;exitY=0.5;exitDx=0;exitDy=0;entryX=1;entryY=0.5;entryDx=0;entryDy=0;strokeColor=#000000;fontColor=#000000;" parent="1" source="2" target="25" edge="1">
                    <mxGeometry relative="1" as="geometry"/>
                </mxCell>
                <mxCell id="79" style="edgeStyle=none;html=1;exitX=0;exitY=0.5;exitDx=0;exitDy=0;entryX=1;entryY=0.5;entryDx=0;entryDy=0;strokeColor=#000000;" edge="1" parent="1" source="2" target="76">
                    <mxGeometry relative="1" as="geometry"/>
                </mxCell>
                <mxCell id="2" value="Branch" style="whiteSpace=wrap;html=1;align=center;fillColor=#647687;fontColor=#ffffff;strokeColor=#314354;" parent="1" vertex="1">
                    <mxGeometry x="148" y="461" width="100" height="40" as="geometry"/>
                </mxCell>
                <mxCell id="16" style="edgeStyle=none;html=1;exitX=0.5;exitY=0;exitDx=0;exitDy=0;strokeColor=#000000;entryX=0.5;entryY=1;entryDx=0;entryDy=0;" parent="1" source="3" target="9" edge="1">
                    <mxGeometry relative="1" as="geometry">
                        <mxPoint x="553.2857142857144" y="192.9196428571429" as="targetPoint"/>
                    </mxGeometry>
                </mxCell>
                <mxCell id="36" style="edgeStyle=none;html=1;entryX=0;entryY=1;entryDx=0;entryDy=0;strokeColor=#000000;exitX=0.5;exitY=0;exitDx=0;exitDy=0;" parent="1" source="3" target="12" edge="1">
                    <mxGeometry relative="1" as="geometry">
                        <mxPoint x="859" y="231" as="sourcePoint"/>
                    </mxGeometry>
                </mxCell>
                <mxCell id="37" style="edgeStyle=none;html=1;exitX=0.5;exitY=0;exitDx=0;exitDy=0;entryX=1;entryY=1;entryDx=0;entryDy=0;strokeColor=#000000;" parent="1" source="3" target="13" edge="1">
                    <mxGeometry relative="1" as="geometry"/>
                </mxCell>
                <mxCell id="38" style="edgeStyle=none;html=1;exitX=0.5;exitY=0;exitDx=0;exitDy=0;entryX=0;entryY=1;entryDx=0;entryDy=0;strokeColor=#000000;" parent="1" source="3" target="8" edge="1">
                    <mxGeometry relative="1" as="geometry"/>
                </mxCell>
                <mxCell id="39" style="edgeStyle=none;html=1;exitX=0.5;exitY=0;exitDx=0;exitDy=0;entryX=1;entryY=1;entryDx=0;entryDy=0;strokeColor=#000000;" parent="1" source="3" target="14" edge="1">
                    <mxGeometry relative="1" as="geometry"/>
                </mxCell>
                <mxCell id="75" style="edgeStyle=none;html=1;exitX=0.25;exitY=1;exitDx=0;exitDy=0;entryX=0.5;entryY=0;entryDx=0;entryDy=0;strokeColor=#000000;" edge="1" parent="1" source="3" target="15">
                    <mxGeometry relative="1" as="geometry"/>
                </mxCell>
                <mxCell id="3" value="Employee" style="whiteSpace=wrap;html=1;align=center;fillColor=#647687;fontColor=#ffffff;strokeColor=#314354;" parent="1" vertex="1">
                    <mxGeometry x="517" y="466" width="100" height="40" as="geometry"/>
                </mxCell>
                <mxCell id="100" style="edgeStyle=none;html=1;exitX=0.5;exitY=1;exitDx=0;exitDy=0;entryX=0;entryY=0;entryDx=0;entryDy=0;strokeColor=#000000;fontColor=#000000;" edge="1" parent="1" source="4" target="33">
                    <mxGeometry relative="1" as="geometry"/>
                </mxCell>
                <mxCell id="101" style="edgeStyle=none;html=1;exitX=0.5;exitY=1;exitDx=0;exitDy=0;entryX=1;entryY=0;entryDx=0;entryDy=0;strokeColor=#000000;fontColor=#000000;" edge="1" parent="1" source="4" target="32">
                    <mxGeometry relative="1" as="geometry"/>
                </mxCell>
                <mxCell id="4" value="Client" style="whiteSpace=wrap;html=1;align=center;fillColor=#647687;fontColor=#ffffff;strokeColor=#314354;" parent="1" vertex="1">
                    <mxGeometry x="332" y="663" width="100" height="40" as="geometry"/>
                </mxCell>
                <mxCell id="8" value="sex" style="ellipse;whiteSpace=wrap;html=1;align=center;fillColor=#1ba1e2;fontColor=#ffffff;strokeColor=#006EAF;" parent="1" vertex="1">
                    <mxGeometry x="652" y="339" width="100" height="40" as="geometry"/>
                </mxCell>
                <mxCell id="21" style="edgeStyle=none;html=1;exitX=1;exitY=0;exitDx=0;exitDy=0;entryX=0.5;entryY=1;entryDx=0;entryDy=0;strokeColor=#000000;" parent="1" source="9" target="10" edge="1">
                    <mxGeometry relative="1" as="geometry"/>
                </mxCell>
                <mxCell id="22" style="edgeStyle=none;html=1;exitX=0;exitY=0;exitDx=0;exitDy=0;entryX=0.5;entryY=1;entryDx=0;entryDy=0;strokeColor=#000000;" parent="1" source="9" target="11" edge="1">
                    <mxGeometry relative="1" as="geometry"/>
                </mxCell>
                <mxCell id="9" value="name" style="ellipse;whiteSpace=wrap;html=1;align=center;fillColor=#1ba1e2;fontColor=#ffffff;strokeColor=#006EAF;" parent="1" vertex="1">
                    <mxGeometry x="517" y="270" width="100" height="40" as="geometry"/>
                </mxCell>
                <mxCell id="10" value="last_name" style="ellipse;whiteSpace=wrap;html=1;align=center;fillColor=#1ba1e2;fontColor=#ffffff;strokeColor=#006EAF;" parent="1" vertex="1">
                    <mxGeometry x="591" y="211" width="100" height="40" as="geometry"/>
                </mxCell>
                <mxCell id="11" value="fist_name" style="ellipse;whiteSpace=wrap;html=1;align=center;fillColor=#1ba1e2;fontColor=#ffffff;strokeColor=#006EAF;" parent="1" vertex="1">
                    <mxGeometry x="452" y="208" width="100" height="40" as="geometry"/>
                </mxCell>
                <mxCell id="12" value="salary" style="ellipse;whiteSpace=wrap;html=1;align=center;fillColor=#1ba1e2;fontColor=#ffffff;strokeColor=#006EAF;" parent="1" vertex="1">
                    <mxGeometry x="652" y="270" width="100" height="40" as="geometry"/>
                </mxCell>
                <mxCell id="13" value="birth_date" style="ellipse;whiteSpace=wrap;html=1;align=center;fillColor=#1ba1e2;fontColor=#ffffff;strokeColor=#006EAF;" parent="1" vertex="1">
                    <mxGeometry x="375" y="270" width="100" height="40" as="geometry"/>
                </mxCell>
                <mxCell id="14" value="emp_id" style="ellipse;whiteSpace=wrap;html=1;align=center;fontStyle=4;fillColor=#fa6800;fontColor=#000000;strokeColor=#C73500;" parent="1" vertex="1">
                    <mxGeometry x="377" y="339" width="100" height="40" as="geometry"/>
                </mxCell>
                <mxCell id="15" value="age" style="ellipse;whiteSpace=wrap;html=1;align=center;dashed=1;fillColor=#0050ef;fontColor=#ffffff;strokeColor=#001DBC;" parent="1" vertex="1">
                    <mxGeometry x="493" y="531" width="54" height="40" as="geometry"/>
                </mxCell>
                <mxCell id="25" value="branch_name" style="ellipse;whiteSpace=wrap;html=1;align=center;fillColor=#1ba1e2;fontColor=#ffffff;strokeColor=#006EAF;" parent="1" vertex="1">
                    <mxGeometry x="12" y="371" width="100" height="40" as="geometry"/>
                </mxCell>
                <mxCell id="30" value="branch_id" style="ellipse;whiteSpace=wrap;html=1;align=center;fontStyle=4;fillColor=#fa6800;fontColor=#000000;strokeColor=#C73500;" parent="1" vertex="1">
                    <mxGeometry x="12" y="461" width="100" height="40" as="geometry"/>
                </mxCell>
                <mxCell id="32" value="client_name" style="ellipse;whiteSpace=wrap;html=1;align=center;fillColor=#1ba1e2;fontColor=#ffffff;strokeColor=#006EAF;" parent="1" vertex="1">
                    <mxGeometry x="244" y="745" width="100" height="40" as="geometry"/>
                </mxCell>
                <mxCell id="33" value="client_id" style="ellipse;whiteSpace=wrap;html=1;align=center;fontStyle=4;fillColor=#fa6800;fontColor=#000000;strokeColor=#C73500;" parent="1" vertex="1">
                    <mxGeometry x="414" y="745" width="100" height="40" as="geometry"/>
                </mxCell>
                <mxCell id="42" value="" style="shape=link;html=1;rounded=0;strokeColor=#000000;exitX=1;exitY=0.5;exitDx=0;exitDy=0;entryX=0;entryY=0.5;entryDx=0;entryDy=0;" parent="1" source="2" target="45" edge="1">
                    <mxGeometry relative="1" as="geometry">
                        <mxPoint x="318" y="412" as="sourcePoint"/>
                        <mxPoint x="338" y="261" as="targetPoint"/>
                    </mxGeometry>
                </mxCell>
                <mxCell id="43" value="M" style="resizable=0;html=1;align=left;verticalAlign=bottom;" parent="42" connectable="0" vertex="1">
                    <mxGeometry x="-1" relative="1" as="geometry"/>
                </mxCell>
                <mxCell id="44" value="N" style="resizable=0;html=1;align=right;verticalAlign=bottom;" parent="42" connectable="0" vertex="1">
                    <mxGeometry x="1" relative="1" as="geometry"/>
                </mxCell>
                <mxCell id="45" value="Works For" style="shape=rhombus;perimeter=rhombusPerimeter;whiteSpace=wrap;html=1;align=center;fillColor=#ffcd28;strokeColor=#d79b00;gradientColor=#ffa500;" parent="1" vertex="1">
                    <mxGeometry x="322" y="411" width="120" height="60" as="geometry"/>
                </mxCell>
                <mxCell id="49" value="" style="shape=link;html=1;rounded=0;strokeColor=#000000;entryX=1;entryY=0.5;entryDx=0;entryDy=0;exitX=0;exitY=0.5;exitDx=0;exitDy=0;" parent="1" source="3" target="45" edge="1">
                    <mxGeometry relative="1" as="geometry">
                        <mxPoint x="622" y="419" as="sourcePoint"/>
                        <mxPoint x="478" y="412" as="targetPoint"/>
                    </mxGeometry>
                </mxCell>
                <mxCell id="74" style="edgeStyle=none;html=1;exitX=1;exitY=1;exitDx=0;exitDy=0;entryX=0.5;entryY=0;entryDx=0;entryDy=0;strokeColor=#000000;fontColor=#000000;" parent="1" source="56" target="73" edge="1">
                    <mxGeometry relative="1" as="geometry"/>
                </mxCell>
                <mxCell id="56" value="Manages" style="shape=rhombus;perimeter=rhombusPerimeter;whiteSpace=wrap;html=1;align=center;fillColor=#ffcd28;gradientColor=#ffa500;strokeColor=#d79b00;" parent="1" vertex="1">
                    <mxGeometry x="322" y="511" width="120" height="60" as="geometry"/>
                </mxCell>
                <mxCell id="58" value="" style="shape=link;html=1;rounded=0;strokeColor=#000000;fontColor=#000000;entryX=0;entryY=0.5;entryDx=0;entryDy=0;exitX=1;exitY=0.5;exitDx=0;exitDy=0;" parent="1" source="56" target="3" edge="1">
                    <mxGeometry relative="1" as="geometry">
                        <mxPoint x="431" y="698" as="sourcePoint"/>
                        <mxPoint x="591" y="698" as="targetPoint"/>
                    </mxGeometry>
                </mxCell>
                <mxCell id="61" value="" style="shape=link;html=1;rounded=0;strokeColor=#000000;fontColor=#000000;exitX=1;exitY=0.5;exitDx=0;exitDy=0;entryX=0;entryY=0.5;entryDx=0;entryDy=0;" parent="1" source="2" target="56" edge="1">
                    <mxGeometry relative="1" as="geometry">
                        <mxPoint x="226" y="679" as="sourcePoint"/>
                        <mxPoint x="386" y="679" as="targetPoint"/>
                    </mxGeometry>
                </mxCell>
                <mxCell id="65" value="1" style="text;html=1;align=center;verticalAlign=middle;resizable=0;points=[];autosize=1;strokeColor=none;fillColor=none;fontColor=#000000;" parent="1" vertex="1">
                    <mxGeometry x="314" y="445" width="25" height="26" as="geometry"/>
                </mxCell>
                <mxCell id="66" value="N" style="text;html=1;align=center;verticalAlign=middle;resizable=0;points=[];autosize=1;strokeColor=none;fillColor=none;fontColor=#000000;" parent="1" vertex="1">
                    <mxGeometry x="424" y="444" width="27" height="26" as="geometry"/>
                </mxCell>
                <mxCell id="67" value="1" style="text;html=1;align=center;verticalAlign=middle;resizable=0;points=[];autosize=1;strokeColor=none;fillColor=none;fontColor=#000000;" parent="1" vertex="1">
                    <mxGeometry x="314" y="512" width="25" height="26" as="geometry"/>
                </mxCell>
                <mxCell id="68" value="1" style="text;html=1;align=center;verticalAlign=middle;resizable=0;points=[];autosize=1;strokeColor=none;fillColor=none;fontColor=#000000;" parent="1" vertex="1">
                    <mxGeometry x="424" y="515" width="25" height="26" as="geometry"/>
                </mxCell>
                <mxCell id="73" value="&lt;span style=&quot;border-bottom: 1px dotted&quot;&gt;start_date&lt;/span&gt;" style="ellipse;whiteSpace=wrap;html=1;align=center;fontColor=#ffffff;fillColor=#1ba1e2;strokeColor=#006EAF;" parent="1" vertex="1">
                    <mxGeometry x="377" y="581" width="100" height="40" as="geometry"/>
                </mxCell>
                <mxCell id="76" value="#_employees" style="ellipse;whiteSpace=wrap;html=1;align=center;dashed=1;fillColor=#1ba1e2;fontColor=#ffffff;strokeColor=#006EAF;" vertex="1" parent="1">
                    <mxGeometry x="12" y="550" width="100" height="40" as="geometry"/>
                </mxCell>
                <mxCell id="77" value="Supervision" style="shape=rhombus;perimeter=rhombusPerimeter;whiteSpace=wrap;html=1;align=center;fillColor=#ffcd28;gradientColor=#ffa500;strokeColor=#d79b00;" vertex="1" parent="1">
                    <mxGeometry x="679" y="452" width="120" height="60" as="geometry"/>
                </mxCell>
                <mxCell id="81" value="" style="endArrow=none;html=1;rounded=0;strokeColor=#000000;exitX=1;exitY=0.75;exitDx=0;exitDy=0;entryX=0.5;entryY=1;entryDx=0;entryDy=0;" edge="1" parent="1" source="3" target="77">
                    <mxGeometry relative="1" as="geometry">
                        <mxPoint x="608" y="562" as="sourcePoint"/>
                        <mxPoint x="739" y="538" as="targetPoint"/>
                    </mxGeometry>
                </mxCell>
                <mxCell id="83" value="" style="endArrow=none;html=1;rounded=0;strokeColor=#000000;exitX=1;exitY=0.25;exitDx=0;exitDy=0;entryX=0.5;entryY=0;entryDx=0;entryDy=0;" edge="1" parent="1" source="3" target="77">
                    <mxGeometry relative="1" as="geometry">
                        <mxPoint x="627" y="506" as="sourcePoint"/>
                        <mxPoint x="749.0000000000002" y="522" as="targetPoint"/>
                    </mxGeometry>
                </mxCell>
                <mxCell id="84" value="&lt;font color=&quot;#000000&quot;&gt;supervisor&lt;/font&gt;" style="text;html=1;align=center;verticalAlign=middle;resizable=0;points=[];autosize=1;strokeColor=none;fillColor=none;" vertex="1" parent="1">
                    <mxGeometry x="632" y="434" width="73" height="26" as="geometry"/>
                </mxCell>
                <mxCell id="85" value="&lt;font color=&quot;#000000&quot;&gt;supervisee&lt;/font&gt;" style="text;html=1;align=center;verticalAlign=middle;resizable=0;points=[];autosize=1;strokeColor=none;fillColor=none;" vertex="1" parent="1">
                    <mxGeometry x="631" y="515" width="76" height="26" as="geometry"/>
                </mxCell>
                <mxCell id="87" value="N" style="text;html=1;align=center;verticalAlign=middle;resizable=0;points=[];autosize=1;strokeColor=none;fillColor=none;fontColor=#000000;" vertex="1" parent="1">
                    <mxGeometry x="706" y="520" width="27" height="26" as="geometry"/>
                </mxCell>
                <mxCell id="89" value="1" style="text;html=1;align=center;verticalAlign=middle;resizable=0;points=[];autosize=1;strokeColor=none;fillColor=none;fontColor=#000000;" vertex="1" parent="1">
                    <mxGeometry x="708" y="423" width="25" height="26" as="geometry"/>
                </mxCell>
                <mxCell id="121" style="edgeStyle=none;html=1;exitX=1;exitY=0;exitDx=0;exitDy=0;entryX=0;entryY=0.5;entryDx=0;entryDy=0;strokeColor=#000000;fontColor=#000000;" edge="1" parent="1" source="93" target="120">
                    <mxGeometry relative="1" as="geometry"/>
                </mxCell>
                <mxCell id="93" value="Works&lt;br&gt;With" style="shape=rhombus;perimeter=rhombusPerimeter;whiteSpace=wrap;html=1;align=center;fillColor=#ffcd28;gradientColor=#ffa500;strokeColor=#d79b00;" vertex="1" parent="1">
                    <mxGeometry x="507" y="653" width="120" height="60" as="geometry"/>
                </mxCell>
                <mxCell id="95" value="" style="endArrow=none;html=1;rounded=0;strokeColor=#000000;fontColor=#000000;exitX=0.5;exitY=0;exitDx=0;exitDy=0;entryX=0.5;entryY=1;entryDx=0;entryDy=0;" edge="1" parent="1" source="93" target="3">
                    <mxGeometry relative="1" as="geometry">
                        <mxPoint x="342" y="569" as="sourcePoint"/>
                        <mxPoint x="502" y="569" as="targetPoint"/>
                    </mxGeometry>
                </mxCell>
                <mxCell id="98" value="" style="shape=link;html=1;rounded=0;strokeColor=#000000;fontColor=#000000;entryX=0;entryY=0.5;entryDx=0;entryDy=0;" edge="1" parent="1" source="4" target="93">
                    <mxGeometry relative="1" as="geometry">
                        <mxPoint x="430" y="683" as="sourcePoint"/>
                        <mxPoint x="508" y="680" as="targetPoint"/>
                    </mxGeometry>
                </mxCell>
                <mxCell id="99" value="N" style="resizable=0;html=1;align=right;verticalAlign=bottom;fontColor=#000000;" connectable="0" vertex="1" parent="98">
                    <mxGeometry x="1" relative="1" as="geometry"/>
                </mxCell>
                <mxCell id="102" value="Handles" style="shape=rhombus;perimeter=rhombusPerimeter;whiteSpace=wrap;html=1;align=center;fillColor=#ffcd28;gradientColor=#ffa500;strokeColor=#d79b00;" vertex="1" parent="1">
                    <mxGeometry x="138" y="653" width="120" height="60" as="geometry"/>
                </mxCell>
                <mxCell id="103" value="" style="shape=link;html=1;rounded=0;strokeColor=#000000;fontColor=#000000;entryX=1;entryY=0.5;entryDx=0;entryDy=0;exitX=0;exitY=0.5;exitDx=0;exitDy=0;" edge="1" parent="1" source="4" target="102">
                    <mxGeometry relative="1" as="geometry">
                        <mxPoint x="154" y="741" as="sourcePoint"/>
                        <mxPoint x="314" y="741" as="targetPoint"/>
                    </mxGeometry>
                </mxCell>
                <mxCell id="104" value="N" style="resizable=0;html=1;align=right;verticalAlign=bottom;fontColor=#000000;" connectable="0" vertex="1" parent="103">
                    <mxGeometry x="1" relative="1" as="geometry"/>
                </mxCell>
                <mxCell id="105" value="" style="endArrow=none;html=1;rounded=0;strokeColor=#000000;fontColor=#000000;exitX=0.5;exitY=1;exitDx=0;exitDy=0;entryX=0.5;entryY=0;entryDx=0;entryDy=0;" edge="1" parent="1" source="2" target="102">
                    <mxGeometry relative="1" as="geometry">
                        <mxPoint x="418" y="555" as="sourcePoint"/>
                        <mxPoint x="578" y="555" as="targetPoint"/>
                    </mxGeometry>
                </mxCell>
                <mxCell id="106" value="1" style="text;html=1;align=center;verticalAlign=middle;resizable=0;points=[];autosize=1;strokeColor=none;fillColor=none;fontColor=#000000;" vertex="1" parent="1">
                    <mxGeometry x="195" y="635" width="25" height="26" as="geometry"/>
                </mxCell>
                <mxCell id="111" value="Supplies" style="shape=rhombus;double=1;perimeter=rhombusPerimeter;whiteSpace=wrap;html=1;align=center;fillColor=#ffcd28;gradientColor=#ffa500;strokeColor=#d79b00;" vertex="1" parent="1">
                    <mxGeometry x="138" y="323" width="120" height="60" as="geometry"/>
                </mxCell>
                <mxCell id="112" value="" style="endArrow=none;html=1;rounded=0;strokeColor=#000000;fontColor=#000000;exitX=0.5;exitY=1;exitDx=0;exitDy=0;entryX=0.5;entryY=0;entryDx=0;entryDy=0;" edge="1" parent="1" source="111" target="2">
                    <mxGeometry relative="1" as="geometry">
                        <mxPoint x="195" y="409.57" as="sourcePoint"/>
                        <mxPoint x="355" y="409.57" as="targetPoint"/>
                    </mxGeometry>
                </mxCell>
                <mxCell id="115" value="N" style="text;html=1;align=center;verticalAlign=middle;resizable=0;points=[];autosize=1;strokeColor=none;fillColor=none;fontColor=#000000;" vertex="1" parent="1">
                    <mxGeometry x="195" y="378" width="27" height="26" as="geometry"/>
                </mxCell>
                <mxCell id="124" style="edgeStyle=none;html=1;exitX=0;exitY=0.5;exitDx=0;exitDy=0;entryX=1;entryY=0;entryDx=0;entryDy=0;strokeColor=#000000;fontColor=#000000;" edge="1" parent="1" source="116" target="122">
                    <mxGeometry relative="1" as="geometry"/>
                </mxCell>
                <mxCell id="125" style="edgeStyle=none;html=1;exitX=0;exitY=0.5;exitDx=0;exitDy=0;entryX=1;entryY=1;entryDx=0;entryDy=0;strokeColor=#000000;fontColor=#000000;" edge="1" parent="1" source="116" target="123">
                    <mxGeometry relative="1" as="geometry"/>
                </mxCell>
                <mxCell id="116" value="Branch &lt;br&gt;Supplier" style="shape=ext;margin=3;double=1;whiteSpace=wrap;html=1;align=center;fillColor=#647687;strokeColor=#314354;fontColor=#ffffff;" vertex="1" parent="1">
                    <mxGeometry x="148" y="230" width="100" height="40" as="geometry"/>
                </mxCell>
                <mxCell id="117" value="" style="shape=link;html=1;rounded=0;strokeColor=#000000;fontColor=#000000;exitX=0.5;exitY=1;exitDx=0;exitDy=0;entryX=0.5;entryY=0;entryDx=0;entryDy=0;" edge="1" parent="1" source="116" target="111">
                    <mxGeometry relative="1" as="geometry">
                        <mxPoint x="184" y="289.29" as="sourcePoint"/>
                        <mxPoint x="344" y="289.29" as="targetPoint"/>
                    </mxGeometry>
                </mxCell>
                <mxCell id="118" value="M" style="resizable=0;html=1;align=left;verticalAlign=bottom;fontColor=#000000;" connectable="0" vertex="1" parent="117">
                    <mxGeometry x="-1" relative="1" as="geometry">
                        <mxPoint x="6" y="56" as="offset"/>
                    </mxGeometry>
                </mxCell>
                <mxCell id="120" value="sales" style="ellipse;whiteSpace=wrap;html=1;align=center;fontColor=#ffffff;fillColor=#1ba1e2;strokeColor=#006EAF;" vertex="1" parent="1">
                    <mxGeometry x="627" y="613" width="100" height="40" as="geometry"/>
                </mxCell>
                <mxCell id="122" value="supply_type" style="ellipse;whiteSpace=wrap;html=1;align=center;fontColor=#ffffff;fillColor=#1ba1e2;strokeColor=#006EAF;" vertex="1" parent="1">
                    <mxGeometry x="12" y="270" width="100" height="40" as="geometry"/>
                </mxCell>
                <mxCell id="123" value="supplier_name" style="ellipse;whiteSpace=wrap;html=1;align=center;fontStyle=4;fontColor=#000000;fillColor=#fa6800;strokeColor=#C73500;" vertex="1" parent="1">
                    <mxGeometry x="12" y="168" width="100" height="40" as="geometry"/>
                </mxCell>
            </root>
        </mxGraphModel>
    </diagram>
</mxfile>